<svg id="ic_dashboard" xmlns="http://www.w3.org/2000/svg" width="30" height="30" viewBox="0 0 30 30">
  <g id="home">
    <path id="Path_372" data-name="Path 372" d="M0,0H30V30H0Z" fill="none"/>
  </g>
  <path id="Shape" d="M16.9,26H1.3A1.3,1.3,0,0,1,0,24.7V8.45a2.6,2.6,0,0,1,2.6-2.6H7.8V2.6A2.6,2.6,0,0,1,10.4,0h5.2a2.6,2.6,0,0,1,2.6,2.6v9.1h5.2A2.6,2.6,0,0,1,26,14.3V24.7A1.3,1.3,0,0,1,24.7,26Zm6.5-2.6V14.3H18.2v9.1Zm-13,0h5.2V14.3q0-.039,0-.077V2.6H10.4Zm-7.8,0H7.8V8.45H2.6Z" transform="translate(2 2)"/>
</svg>
