<svg xmlns="http://www.w3.org/2000/svg" width="36.551" height="35.738" viewBox="0 0 36.551 35.738">
  <g id="Group_402" data-name="Group 402" transform="translate(-29.512 -191)">
    <path id="Path_372" data-name="Path 372" d="M0,0H36.551V35.738H0Z" transform="translate(29.512 191)" fill="none"/>
    <path id="Path_373" data-name="Path 373" d="M6.046,16.4H3L16.707,3,30.413,16.4H27.367" transform="translate(31.081 192.467)" fill="none" stroke="#000" stroke-linecap="round" stroke-linejoin="round" stroke-width="2"/>
    <path id="Path_374" data-name="Path 374" d="M5,12V22.423A3.013,3.013,0,0,0,8.046,25.4H23.275a3.013,3.013,0,0,0,3.046-2.978V12" transform="translate(32.127 196.869)" fill="none" stroke="#000" stroke-linecap="round" stroke-linejoin="round" stroke-width="2"/>
    <path id="Path_375" data-name="Path 375" d="M9,24.913V15.978A3.013,3.013,0,0,1,12.046,13h3.046a3.013,3.013,0,0,1,3.046,2.978v8.934" transform="translate(34.219 197.358)" fill="none" stroke="#000" stroke-linecap="round" stroke-linejoin="round" stroke-width="2"/>
  </g>
</svg>
