<svg xmlns="http://www.w3.org/2000/svg" width="90" height="72" viewBox="0 0 90 72">
  <path id="Icon_awesome-chalkboard-teacher" data-name="Icon awesome-chalkboard-teacher" d="M29.25,49.5a3.217,3.217,0,0,0-.993.153,18.55,18.55,0,0,1-5.757.972,18.566,18.566,0,0,1-5.759-.972,3.208,3.208,0,0,0-.991-.153A15.751,15.751,0,0,0,0,65.337,6.733,6.733,0,0,0,6.75,72h31.5A6.733,6.733,0,0,0,45,65.337,15.751,15.751,0,0,0,29.25,49.5ZM22.5,45A13.5,13.5,0,1,0,9,31.5,13.5,13.5,0,0,0,22.5,45ZM83.25,0h-54A6.872,6.872,0,0,0,22.5,6.974V13.5a17.8,17.8,0,0,1,9,2.5V9H81V49.5H72v-9H54v9H43.279a17.923,17.923,0,0,1,5.581,9H83.25A6.872,6.872,0,0,0,90,51.526V6.974A6.872,6.872,0,0,0,83.25,0Z" transform="translate(0)" fill="#fff"/>
</svg>
