<?xml version="1.0" encoding="UTF-8"?>
<svg width="40px" height="40px" viewBox="0 0 40 40" version="1.1" xmlns="http://www.w3.org/2000/svg" xmlns:xlink="http://www.w3.org/1999/xlink">
    <title>ic_img</title>
    <g id="ic_img" stroke="none" stroke-width="1" fill="none" fill-rule="evenodd">
        <g id="image" transform="translate(5.000000, 7.000000)" fill-rule="nonzero">
            <path d="M30,4.12509157 L30,22.8749084 C30,25.1551209 28.4626007,27 26.5624237,27 L3.43757631,27 C3.12492369,27 2.82508852,26.9549561 2.54997252,26.8500367 C1.07505797,26.3850403 0,24.7799377 0,22.8749084 L0,4.12509157 C0,1.84487913 1.53739928,0 3.43757631,0 L26.5624237,0 C28.4626007,0 30,1.84487913 30,4.12509157 Z" id="Path" fill="#F3F3F3"></path>
            <path d="M10.0415878,6.38896689 C10.0415878,7.80026247 8.88504793,8.94436644 7.45841219,8.94436644 C6.03153989,8.94436644 4.875,7.80026247 4.875,6.38896689 C4.875,4.97743731 6.03153989,3.83333333 7.45841219,3.83333333 C8.88504793,3.83333333 10.0415878,4.97743731 10.0415878,6.38896689 Z" id="Path" fill="#FFC107"></path>
            <path d="M30,20.5345256 L30,23.4860331 C30,25.4284363 28.4113541,27 26.4478378,27 L3.43757631,27 C3.11450194,27 2.42686465,26.3757527 2.14257812,26.286377 C2.39408776,26.0933905 2.66732107,25.8510045 2.96227806,25.5592191 C6.17494029,22.3811016 10.9939337,17.6139254 17.4192581,11.2576904 C18.2974243,10.3889669 19.7441635,10.3889669 20.6225662,11.2576904 L30,20.5345256 Z" id="Path" fill="#588F65"></path>
            <path d="M22.0357513,27 L3.55216219,27 C3.22908781,27 2.91925813,26.9616292 2.6349716,26.8722534 C1.11089323,26.4761454 0,25.1088358 0,23.4860331 L0,23.0899251 L7.43993376,15.7299907 C8.3183365,14.8610331 9.76507568,14.8610331 10.6432419,15.7299907 L22.0357513,27 Z" id="Path" fill="#65CD7D"></path>
        </g>
    </g>
</svg>