<svg width="40" height="40" viewBox="0 0 40 40" fill="none" xmlns="http://www.w3.org/2000/svg">
<rect width="40" height="40" fill="white"/>
<path fill-rule="evenodd" clip-rule="evenodd" d="M34.0001 8H6.00006C5.00206 8 4.21006 8.837 4.06006 9.91475L20.0001 21.7295L35.9401 9.91475C35.7901 8.837 34.9981 8 34.0001 8ZM4 28.232V12.563L14.788 20.5595L4 28.232ZM36 28.232L25.212 20.5595L36 12.563V28.232ZM20.55 24.0155L23.38 21.9185L35.936 30.851C35.782 31.9198 34.994 32.75 34 32.75H5.99996C5.00596 32.75 4.21796 31.9198 4.06396 30.851L16.62 21.9163L19.45 24.0155C19.618 24.1393 19.808 24.2 20 24.2C20.192 24.2 20.382 24.1393 20.55 24.0155Z" fill="#595959"/>
</svg>
