<?xml version="1.0" encoding="UTF-8"?>
<svg width="40px" height="40px" viewBox="0 0 40 40" version="1.1" xmlns="http://www.w3.org/2000/svg" xmlns:xlink="http://www.w3.org/1999/xlink">
    <title>ic_pdf</title>
    <g id="ic_pdf" stroke="none" stroke-width="1" fill="none" fill-rule="evenodd">
        <g id="Group" transform="translate(9.000000, 6.000000)" fill-rule="nonzero">
            <g id="pdf">
                <path d="M16.8621265,0.00640869141 L0.782534884,0 C0.350348837,0 0,0.327734619 0,0.963234619 L0,27.5002346 C0,27.6727346 0.350348837,28.0002346 0.782534884,28.0002346 L22.2174651,28.0002346 C22.6496512,28.0002346 23,27.6727346 23,27.5002346 L23,6.48923462 C23,6.14123462 22.9502558,6.02923462 22.8625349,5.94673462 L17.1948242,0.134908691 C17.1065684,0.0529086914 16.9867545,0.00640869141 16.8621265,0.00640869141 Z" id="Path" fill="#F3F3F3"></path>
                <polygon id="Path" fill="#E2E2E2" points="17.1395349 0.0757346191 17.1395349 6.00023462 22.9262558 6.00023462"></polygon>
                <path d="M7.35567442,16.6622346 L7.35567442,16.6622346 C7.18572093,16.6622346 7.02260465,16.6057346 6.8834186,16.4992346 C6.37502326,16.1087346 6.30665116,15.6742346 6.33888372,15.3782346 C6.42776744,14.5642346 7.41086047,13.7122346 9.2617907,12.8442346 C9.99630233,11.1962346 10.6951628,9.16573462 11.1117442,7.46923462 C10.6243488,6.38323462 10.1506279,4.97423462 10.495907,4.14773462 C10.6170233,3.85823462 10.7679302,3.63623462 11.0497209,3.54023462 C11.1610698,3.50223462 11.4423721,3.45423462 11.545907,3.45423462 C11.7920465,3.45423462 12.0083953,3.77873462 12.1617442,3.97873462 C12.305814,4.16673462 12.6325349,4.56523462 11.9795814,7.37973462 C12.637907,8.77173462 13.5706977,10.1897346 14.4644186,11.1607346 C15.1046744,11.0422346 15.6555581,10.9817346 16.1043721,10.9817346 C16.8691628,10.9817346 17.3326279,11.1642346 17.5216279,11.5402346 C17.677907,11.8512346 17.6139302,12.2147346 17.3311628,12.6202346 C17.0591395,13.0097346 16.6840698,13.2157346 16.2469767,13.2157346 C15.6531163,13.2157346 14.9615814,12.8317346 14.1904419,12.0732346 C12.8049302,12.3697346 11.1869535,12.8987346 9.87909302,13.4842346 C9.47081395,14.3712346 9.07962791,15.0857346 8.71530233,15.6097346 C8.21472093,16.3272346 7.783,16.6622346 7.35567442,16.6622346 Z M8.65572093,14.0992346 C7.61206977,14.6997346 7.18669767,15.1932346 7.15593023,15.4712346 C7.15104651,15.5172346 7.13786047,15.6382346 7.3664186,15.8172346 C7.43918605,15.7937346 7.86406977,15.5952346 8.65572093,14.0992346 Z M15.3156512,11.8782346 C15.7136744,12.1917346 15.8108605,12.3502346 16.0711628,12.3502346 C16.1854419,12.3502346 16.511186,12.3452346 16.662093,12.1297346 C16.7348605,12.0252346 16.763186,11.9582346 16.7744186,11.9222346 C16.7143488,11.8897346 16.6347442,11.8237346 16.2005814,11.8237346 C15.9539535,11.8242346 15.6438372,11.8352346 15.3156512,11.8782346 Z M11.6675116,8.58723462 C11.3183256,9.82423462 10.8573023,11.1597346 10.3616047,12.3692346 C11.3823023,11.9637346 12.4918837,11.6097346 13.5340698,11.3592346 C12.8747674,10.5752346 12.2159535,9.59623462 11.6675116,8.58723462 Z M11.3710698,4.35623462 C11.3232093,4.37273462 10.7215349,5.23473462 11.4179535,5.96423462 C11.8814186,4.90673462 11.3920698,4.34923462 11.3710698,4.35623462 Z" id="Shape" fill="#CC4B4C"></path>
                <path d="M22.2174651,28.0002346 L0.782534884,28.0002346 C0.350348837,28.0002346 0,27.6727346 0,27.2687346 L0,19.5002346 L23,19.5002346 L23,27.2687346 C23,27.6727346 22.6496512,28.0002346 22.2174651,28.0002346 Z" id="Path" fill="#CC4B4C"></path>
            </g>
            <path d="M6.463,26.0002346 L6.463,24.1242346 L7.282,24.1242346 C8.542,24.1242346 9.046,23.3682346 9.046,22.6262346 C9.046,21.7792346 8.458,21.1142346 7.282,21.1142346 L5.483,21.1142346 L5.483,26.0002346 L6.463,26.0002346 Z M7.24,23.3332346 L6.463,23.3332346 L6.463,21.9122346 L7.24,21.9122346 C7.793,21.9122346 8.038,22.1782346 8.038,22.6262346 C8.038,23.0602346 7.793,23.3332346 7.24,23.3332346 Z M11.447,26.0002346 C13.008,26.0002346 14.023,25.0412346 14.023,23.5642346 C14.023,22.0802346 13.008,21.1142346 11.447,21.1142346 L9.739,21.1142346 L9.739,26.0002346 L11.447,26.0002346 Z M11.412,25.1672346 L10.719,25.1672346 L10.719,21.9402346 L11.412,21.9402346 C12.441,21.9402346 13.022,22.5492346 13.022,23.5642346 C13.022,24.5792346 12.441,25.1672346 11.412,25.1672346 Z M15.738,26.0002346 L15.738,23.9352346 L17.299,23.9352346 L17.299,23.1582346 L15.738,23.1582346 L15.738,21.9052346 L17.775,21.9052346 L17.775,21.1142346 L14.758,21.1142346 L14.758,26.0002346 L15.738,26.0002346 Z" id="PDF" fill="#FFFFFF"></path>
        </g>
    </g>
</svg>