<svg width="40" height="40" viewBox="0 0 40 40" fill="none" xmlns="http://www.w3.org/2000/svg">
<rect width="40" height="40" fill="white"/>
<path d="M28.7634 21.0029C28.7768 19.778 29.1009 18.5765 29.7051 17.511C30.3094 16.4454 31.1742 15.5506 32.2185 14.9103C31.5546 13.9656 30.6807 13.1876 29.6655 12.6373C28.6503 12.0871 27.5214 11.7795 26.3673 11.7389C23.8689 11.4875 21.504 13.2017 20.2392 13.2017C18.9744 13.2017 17.0255 11.7767 14.9586 11.8146C13.6024 11.8523 12.2793 12.2419 11.119 12.9452C9.95864 13.6484 9.00099 14.641 8.33991 15.8258C5.51777 20.7204 7.61685 27.9776 10.3678 31.9489C11.7116 33.8933 13.3145 36.0758 15.4192 35.998C17.446 35.9168 18.2113 34.6865 20.6619 34.6865C23.1125 34.6865 23.7999 35.998 25.9446 35.9579C28.1249 35.9179 29.5043 33.9768 30.8392 32.0267C31.7931 30.6243 32.5398 29.0916 33.0562 27.4759C31.7868 26.934 30.7038 26.0322 29.941 24.8819C29.1782 23.7316 28.7688 22.3832 28.7634 21.0029V21.0029ZM24.7344 9.11033C25.9434 7.69399 26.5432 5.85693 26.4029 4C24.5801 4.17672 22.8938 5.04393 21.6897 6.4239C21.0884 7.09288 20.6278 7.87594 20.3352 8.72653C20.0427 9.57711 19.9241 10.4778 19.9867 11.3752C20.8989 11.388 21.8017 11.1903 22.6251 10.7975C23.4485 10.4047 24.1703 9.82736 24.7344 9.11033Z" fill="black"/>
</svg>
