<svg width="40" height="40" viewBox="0 0 40 40" fill="none" xmlns="http://www.w3.org/2000/svg">
<rect width="40" height="40" fill="white"/>
<path d="M35.3538 20.3535C35.3728 19.2536 35.2594 18.1554 35.016 17.0826H19.9966V23.0196H28.813C28.6459 24.0605 28.27 25.0568 27.7079 25.9486C27.1458 26.8404 26.4091 27.6094 25.5421 28.2091L25.5118 28.4114L30.2654 32.0899L30.5941 32.1223C32.1665 30.6029 33.4029 28.7707 34.2234 26.7439C35.044 24.7172 35.4304 22.5409 35.3578 20.3556" fill="#4285F4"/>
<path d="M19.9965 35.9939C23.8932 36.1041 27.684 34.7175 30.59 32.1192L25.5421 28.2091C23.9051 29.3066 21.9665 29.866 19.9965 29.8092C17.9734 29.7978 16.0052 29.1495 14.3713 27.9564C12.7373 26.7633 11.5206 25.0859 10.8939 23.1622L10.7068 23.1784L5.76908 26.9995L5.70435 27.1785C7.03371 29.8292 9.07442 32.0578 11.5982 33.6148C14.1219 35.1719 17.0291 35.996 19.9945 35.9949" fill="#34A853"/>
<path d="M10.8969 23.1622C10.5475 22.1439 10.3675 21.0751 10.3639 19.9985C10.3705 18.9236 10.5445 17.8562 10.8797 16.8348L10.8706 16.6224L5.87024 12.7397L5.70639 12.8175C4.58442 15.045 4 17.5044 4 19.9985C4 22.4926 4.58442 24.952 5.70639 27.1795L10.8959 23.1622" fill="#FBBC05"/>
<path d="M19.9965 10.1869C22.2889 10.1512 24.5059 11.0049 26.1823 12.5687L30.6972 8.16101C27.8013 5.44454 23.9668 3.95385 19.9965 4.00109C17.0312 3.99995 14.1241 4.8239 11.6004 6.38075C9.07664 7.93761 7.03586 10.166 5.70636 12.8165L10.8787 16.8338C11.5113 14.9107 12.7316 13.2347 14.3674 12.042C16.0032 10.8493 17.9721 10.2001 19.9965 10.1858" fill="#EB4335"/>
</svg>
