<svg width="40" height="40" viewBox="0 0 40 40" fill="none" xmlns="http://www.w3.org/2000/svg">
<rect width="40" height="40" fill="white"/>
<path d="M36.1934 20.0983C36.1937 17.0221 35.3125 14.0102 33.6542 11.4192C31.9958 8.82823 29.6297 6.76673 26.8361 5.47876C24.0425 4.1908 20.9383 3.73032 17.8911 4.15184C14.8438 4.57336 11.9812 5.85923 9.64214 7.8572C7.30305 9.85517 5.58545 12.4816 4.69272 15.4254C3.79999 18.3693 3.7695 21.5073 4.60488 24.4679C5.44026 27.4286 7.10651 30.0878 9.40634 32.1309C11.7062 34.1739 14.5433 35.5151 17.5817 35.9958V24.751H13.4929V20.0983H17.5817V16.5479C17.5817 12.5141 19.9833 10.2864 23.6609 10.2864C24.8682 10.3044 26.0726 10.4107 27.2644 10.6043V14.5639H25.2369C24.8911 14.5186 24.5395 14.5516 24.2081 14.6602C23.8767 14.7689 23.5738 14.9506 23.3219 15.1918C23.07 15.433 22.8754 15.7277 22.7525 16.0541C22.6296 16.3805 22.5815 16.7303 22.6117 17.0778V20.0983H27.0757L26.3614 24.751H22.6117V36C26.3978 35.4 29.8457 33.4689 32.3353 30.554C34.825 27.6392 36.193 23.9317 36.1934 20.0983V20.0983Z" fill="#0058FF"/>
</svg>
