<?xml version="1.0" encoding="UTF-8"?>
<svg width="280px" height="280px" viewBox="0 0 280 280" version="1.1" xmlns="http://www.w3.org/2000/svg" xmlns:xlink="http://www.w3.org/1999/xlink">
    <title>img_tavis_placeholder</title>
    <g id="img_tavis_placeholder" stroke="none" stroke-width="1" fill="none" fill-rule="evenodd">
        <g id="Group-2">
            <rect id="Rectangle" fill="#595959" x="0" y="0" width="280" height="280"></rect>
            <g id="Group-3" transform="translate(102.000000, 102.000000)" fill="#FFFFFF">
                <path d="M46.5879279,30.9298598 L46.5879279,76 L30.4277846,76 L30.4277846,30.9525283 C33.9829105,34.3573355 36.7451476,38.7660331 38.3230029,42.8955843 C38.3692163,43.0238232 38.4847496,43.3865191 38.4847496,43.3936434 L38.4847496,43.3936434 L38.499934,43.4467525 C38.499934,43.4467525 38.6233896,43.0393673 38.676865,42.8955843 C40.2547204,38.7511366 43.0400641,34.334667 46.5879279,30.9298598 L46.5879279,30.9298598 Z M17.3451853,0 C26.9489767,0 35.1293973,8.19886913 38.3458455,17.5447639 L38.3458455,17.5447639 L38.5075922,18.0583671 L38.6614166,17.5369918 C41.8778648,8.19109708 50.0582854,0 59.6620768,0 L59.6620768,0 L77,0 L77,14.7215653 L59.6620768,14.7215653 C50.0734698,14.7215653 41.9009714,24.2714765 38.676601,32.7041549 C38.6231255,32.8699587 38.5617278,33.0435346 38.4996699,33.2099861 C38.4924078,33.1873176 38.3768745,32.8699587 38.3227388,32.7041549 C35.0983684,24.2714765 26.9337923,14.7215653 17.3451853,14.7215653 L17.3451853,14.7215653 L0,14.7215653 L0,0 Z" id="Combined-Shape"></path>
            </g>
        </g>
    </g>
</svg>