<svg xmlns="http://www.w3.org/2000/svg" width="36" height="34.11" viewBox="0 0 36 34.11">
  <path id="Icon_simple-microsoftpowerpoint" data-name="Icon simple-microsoftpowerpoint" d="M35.226,6H22.413v4.779A4.475,4.475,0,0,1,25.2,9.9v4.647h4.611a4.653,4.653,0,0,1-4.633,4.663,4.813,4.813,0,0,1-2.743-.923v3.194H32.508v1.567H22.427v1.94H32.5v1.548H22.421v3.51H35.235c.519,0,.765-.273.765-.806V6.765A.671.671,0,0,0,35.235,6ZM25.92,13.779V9.093a4.65,4.65,0,0,1,4.641,4.686Zm-13.536.078a1.442,1.442,0,0,0-.394-.708,1.647,1.647,0,0,0-.724-.369,3.952,3.952,0,0,0-1.035-.135l-1.08.021v4.5h.039a10.636,10.636,0,0,0,1.238,0,2.88,2.88,0,0,0,1.214-.337,2,2,0,0,0,.842-1.371,3.789,3.789,0,0,0-.1-1.667v.068ZM0,4.589V31.507l20.532,3.548V.945Zm15.319,12.13a4.137,4.137,0,0,1-2.526,2.5,9.91,9.91,0,0,1-3.644.419v5.133l-2.7-.313v-14.1l4.288-.224a6.633,6.633,0,0,1,2.349.27,3.216,3.216,0,0,1,1.835,1.383,4.94,4.94,0,0,1,.765,2.408A5.9,5.9,0,0,1,15.319,16.719Z" transform="translate(0 -0.945)" fill="#ff3b00"/>
</svg>
