<svg xmlns="http://www.w3.org/2000/svg" width="32" height="32" viewBox="0 0 32 32">
  <g id="Resources_icon" data-name="Resources icon" transform="translate(-141.788 -12961)">
    <path id="Path_378" data-name="Path 378" d="M0,0H32V32H0Z" transform="translate(141.788 12961)" fill="none"/>
    <path id="Path_379" data-name="Path 379" d="M14,3V8.667a1.377,1.377,0,0,0,1.333,1.417h5.333" transform="translate(146.454 12961.25)" fill="none" stroke="#02f" stroke-linecap="round" stroke-linejoin="round" stroke-width="2"/>
    <path id="Path_380" data-name="Path 380" d="M21,28.5H7.667A2.754,2.754,0,0,1,5,25.667V5.833A2.754,2.754,0,0,1,7.667,3H17l6.667,7.083V25.667A2.754,2.754,0,0,1,21,28.5Z" transform="translate(143.454 12961.25)" fill="none" stroke="#02f" stroke-linecap="round" stroke-linejoin="round" stroke-width="2"/>
    <line id="Line_12" data-name="Line 12" x2="1.831" transform="translate(153.69 12970.193)" fill="none" stroke="#02f" stroke-linecap="round" stroke-linejoin="round" stroke-width="2"/>
    <line id="Line_13" data-name="Line 13" x2="8.24" transform="translate(153.69 12978.349)" fill="none" stroke="#02f" stroke-linecap="round" stroke-linejoin="round" stroke-width="2"/>
    <line id="Line_14" data-name="Line 14" x2="2.747" transform="translate(159.184 12984.464)" fill="none" stroke="#02f" stroke-linecap="round" stroke-linejoin="round" stroke-width="2"/>
  </g>
</svg>
