<svg id="ic_setting" xmlns="http://www.w3.org/2000/svg" width="35" height="35" viewBox="0 0 35 35">
  <path id="Path_386" data-name="Path 386" d="M0,0H35V35H0Z" fill="none"/>
  <path id="Path_387" data-name="Path 387" d="M13.682,4.921a2.514,2.514,0,0,1,4.885,0A2.514,2.514,0,0,0,22.32,6.475a2.515,2.515,0,0,1,3.456,3.456,2.514,2.514,0,0,0,1.553,3.751,2.514,2.514,0,0,1,0,4.885,2.514,2.514,0,0,0-1.555,3.752,2.515,2.515,0,0,1-3.456,3.456,2.514,2.514,0,0,0-3.751,1.553,2.514,2.514,0,0,1-4.885,0A2.514,2.514,0,0,0,9.93,25.775a2.515,2.515,0,0,1-3.456-3.456,2.514,2.514,0,0,0-1.553-3.751,2.514,2.514,0,0,1,0-4.885A2.514,2.514,0,0,0,6.475,9.93,2.515,2.515,0,0,1,9.931,6.474a2.513,2.513,0,0,0,3.751-1.553Z" transform="translate(1.375 1.375)" fill="none" stroke="#000" stroke-linecap="round" stroke-linejoin="round" stroke-width="2"/>
  <circle id="Ellipse_2" data-name="Ellipse 2" cx="4.662" cy="4.662" r="4.662" transform="translate(12.82 12.856)" fill="none" stroke="#000" stroke-linecap="round" stroke-linejoin="round" stroke-width="2"/>
</svg>
