<svg xmlns="http://www.w3.org/2000/svg" width="24.04" height="22.323" viewBox="0 0 24.04 22.323">
  <g id="Group_418" data-name="Group 418" transform="translate(-1078 -326.838)">
    <path id="Icon_ionic-ios-star" data-name="Icon ionic-ios-star" d="M25.378,11.1H17.484l-2.4-7.158a.869.869,0,0,0-1.631,0l-2.4,7.158H3.109a.861.861,0,0,0-.859.859.631.631,0,0,0,.016.145.825.825,0,0,0,.36.606l6.488,4.572-2.49,7.239a.861.861,0,0,0,.3.966A.83.83,0,0,0,7.4,25.7a1.052,1.052,0,0,0,.537-.193l6.332-4.513L20.6,25.5a1,1,0,0,0,.537.193.771.771,0,0,0,.478-.209.851.851,0,0,0,.3-.966l-2.49-7.239,6.434-4.615.156-.134a.9.9,0,0,0,.279-.574A.909.909,0,0,0,25.378,11.1Z" transform="translate(1075.75 323.463)"/>
  </g>
</svg>
