<svg xmlns="http://www.w3.org/2000/svg" width="30" height="30" viewBox="0 0 30 30">
  <g id="Group_405" data-name="Group 405" transform="translate(-32.644 -530.738)">
    <path id="Path_393" data-name="Path 393" d="M0,0H30V30H0Z" transform="translate(32.644 530.738)" fill="none"/>
    <ellipse id="Ellipse_3" data-name="Ellipse 3" cx="5.345" cy="4.859" rx="5.345" ry="4.859" transform="translate(38.475 534.625)" fill="none" stroke="#000" stroke-linecap="round" stroke-linejoin="round" stroke-width="3"/>
    <path id="Path_394" data-name="Path 394" d="M3,22.5V20a5,5,0,0,1,5-5h5a5,5,0,0,1,5,5v2.5" transform="translate(33.394 534.488)" fill="none" stroke="#000" stroke-linecap="round" stroke-linejoin="round" stroke-width="3"/>
    <path id="Path_395" data-name="Path 395" d="M16,3.13a5,5,0,0,1,0,9.688" transform="translate(36.644 531.52)" fill="none" stroke="#000" stroke-linecap="round" stroke-linejoin="round" stroke-width="3"/>
    <path id="Path_396" data-name="Path 396" d="M21.75,22.462v-2.5A5,5,0,0,0,18,15.15" transform="translate(37.144 534.525)" fill="none" stroke="#000" stroke-linecap="round" stroke-linejoin="round" stroke-width="3"/>
  </g>
</svg>
